<?xml version="1.0" encoding="UTF-8" standalone="no"?>
<!DOCTYPE svg PUBLIC "-//W3C//DTD SVG 1.1//EN" "http://www.w3.org/Graphics/SVG/1.1/DTD/svg11.dtd">
<svg width="100%" height="100%" viewBox="0 0 439 439" version="1.1" xmlns="http://www.w3.org/2000/svg" xmlns:xlink="http://www.w3.org/1999/xlink" xml:space="preserve" xmlns:serif="http://www.serif.com/" style="fill-rule:evenodd;clip-rule:evenodd;stroke-linejoin:round;stroke-miterlimit:1.41421;">
    <path d="M409.133,109.203C389.525,75.611 362.928,49.014 329.335,29.407C295.736,9.801 259.058,0 219.273,0C179.492,0 142.803,9.801 109.21,29.407C75.615,49.011 49.018,75.608 29.41,109.203C9.801,142.8 0,179.489 0,219.267C0,259.047 9.804,295.73 29.407,329.329C49.014,362.921 75.611,389.518 109.206,409.127C142.803,428.732 179.489,438.534 219.269,438.534C259.049,438.534 295.739,428.732 329.334,409.127C362.927,389.525 389.523,362.921 409.129,329.329C428.732,295.733 438.532,259.045 438.532,219.267C438.533,179.485 428.732,142.795 409.133,109.203Z" style="fill:white;fill-rule:nonzero;"/>
</svg>
