<?xml version="1.0" encoding="UTF-8" standalone="no"?>
<!DOCTYPE svg PUBLIC "-//W3C//DTD SVG 1.1//EN" "http://www.w3.org/Graphics/SVG/1.1/DTD/svg11.dtd">
<svg width="100%" height="100%" viewBox="0 0 444 444" version="1.1" xmlns="http://www.w3.org/2000/svg" xmlns:xlink="http://www.w3.org/1999/xlink" xml:space="preserve" xmlns:serif="http://www.serif.com/" style="fill-rule:evenodd;clip-rule:evenodd;stroke-linejoin:round;stroke-miterlimit:1.41421;">
    <g transform="matrix(-1.1547,1.4141e-16,-1.4141e-16,-1.1547,477.597,413.61)">
        <path d="M191.654,51.961C197.842,41.243 209.277,34.641 221.653,34.641C234.03,34.641 245.465,41.243 251.653,51.961C287.644,114.299 347.62,218.181 383.611,280.518C389.799,291.236 389.799,304.441 383.611,315.159C377.423,325.877 365.987,332.48 353.611,332.479C281.63,332.479 161.677,332.48 89.696,332.48C77.32,332.48 65.884,325.877 59.696,315.159C53.508,304.441 53.508,291.236 59.696,280.518C95.687,218.181 155.663,114.299 191.654,51.961Z" style="fill-opacity:0.375;"/>
    </g>
</svg>
